<?xml version="1.0" standalone="no"?>
<!DOCTYPE svg PUBLIC "-//W3C//DTD SVG 20010904//EN"
 "http://www.w3.org/TR/2001/REC-SVG-20010904/DTD/svg10.dtd">
<svg version="1.0" xmlns="http://www.w3.org/2000/svg"
 width="511.000000pt" height="305.000000pt" viewBox="0 0 511.000000 305.000000"
 preserveAspectRatio="xMidYMid meet">

<g transform="translate(0.000000,305.000000) scale(0.100000,-0.100000)"
fill="#000000" stroke="none">
<path d="M3480 910 l0 -81 -27 21 c-111 81 -240 -53 -178 -184 30 -64 125 -88
179 -45 l26 20 0 -20 c0 -12 6 -21 15 -21 13 0 15 28 15 195 0 167 -2 195 -15
195 -12 0 -15 -16 -15 -80z m-37 -90 c47 -37 48 -120 2 -166 -71 -71 -179 19
-145 121 21 64 91 86 143 45z"/>
<path d="M2890 930 c0 -13 7 -20 20 -20 13 0 20 7 20 20 0 13 -7 20 -20 20
-13 0 -20 -7 -20 -20z"/>
<path d="M3030 906 c0 -30 -4 -35 -27 -38 -36 -4 -41 -26 -6 -30 l28 -3 3
-104 c1 -59 8 -111 14 -118 13 -16 60 -13 65 4 2 6 -6 13 -19 15 -22 3 -23 7
-26 105 l-3 102 33 3 c43 4 43 22 1 26 -30 3 -33 6 -33 38 0 24 -5 34 -15 34
-10 0 -15 -10 -15 -34z"/>
<path d="M1814 866 c-35 -15 -68 -57 -78 -99 -10 -40 11 -106 44 -139 24 -23
37 -28 79 -28 54 0 101 16 101 35 0 21 -12 25 -34 10 -33 -24 -93 -19 -121 9
-46 46 -45 129 2 166 27 21 107 28 118 10 10 -16 35 -12 35 6 0 17 -57 44 -92
44 -13 -1 -37 -7 -54 -14z"/>
<path d="M2095 860 c-47 -24 -45 -24 -45 -4 0 9 -6 14 -12 12 -9 -3 -14 -42
-16 -136 -2 -113 0 -132 13 -132 12 0 15 15 15 85 0 46 5 95 11 108 15 33 48
49 90 45 47 -4 59 -33 59 -145 0 -76 3 -93 15 -93 12 0 15 19 15 109 0 100 -2
112 -22 135 -32 36 -74 42 -123 16z"/>
<path d="M2360 868 c-13 -8 -31 -26 -40 -41 -24 -43 1 -77 75 -103 33 -12 64
-29 70 -38 29 -46 -63 -76 -116 -37 -33 25 -49 27 -49 6 0 -25 60 -55 111 -55
57 0 89 26 89 74 0 40 -11 50 -87 80 -47 18 -59 27 -61 47 -5 47 66 61 110 22
9 -8 22 -12 27 -8 47 29 -77 80 -129 53z"/>
<path d="M2621 862 c-87 -48 -95 -178 -15 -241 36 -28 106 -28 145 0 32 23 36
15 15 -36 -22 -52 -76 -70 -142 -45 -37 14 -53 -3 -23 -24 30 -20 110 -21 149
-1 51 26 60 58 60 215 0 118 -2 140 -15 140 -8 0 -15 -9 -15 -20 l0 -21 -28
21 c-41 30 -90 35 -131 12z m115 -37 c77 -53 39 -195 -52 -195 -43 0 -90 40
-98 84 -8 41 13 99 41 115 26 15 85 13 109 -4z"/>
<path d="M3651 862 c-50 -27 -73 -75 -68 -141 3 -47 9 -59 40 -88 31 -28 44
-33 84 -33 47 0 113 29 113 49 0 21 -21 21 -46 2 -38 -30 -87 -27 -123 7 -16
15 -32 37 -36 50 -6 22 -5 22 92 22 110 0 125 7 113 50 -14 48 -28 67 -64 84
-44 21 -63 20 -105 -2z m114 -47 c40 -39 32 -45 -60 -45 -92 0 -100 6 -60 45
16 17 35 25 60 25 25 0 44 -8 60 -25z"/>
<path d="M3865 871 c-6 -10 89 -245 107 -266 5 -6 13 -4 22 5 23 25 108 240
101 257 -9 25 -19 8 -68 -105 l-44 -103 -45 108 c-45 104 -59 125 -73 104z"/>
<path d="M1274 857 c-2 -7 -3 -67 -2 -133 2 -98 6 -119 18 -119 12 0 16 20 20
98 4 89 7 101 29 118 13 10 36 19 51 19 47 0 59 -25 62 -135 2 -81 6 -100 18
-100 12 0 16 20 20 98 4 89 7 101 29 118 34 27 75 24 100 -7 18 -23 21 -41 21
-120 0 -79 3 -94 16 -94 14 0 15 15 12 116 -3 108 -5 117 -27 135 -31 25 -87
24 -130 -2 l-33 -20 -22 20 c-13 12 -36 21 -54 21 -37 0 -82 -19 -83 -34 0 -6
-4 -1 -9 12 -10 24 -28 29 -36 9z"/>
<path d="M2892 738 c3 -110 6 -133 18 -133 12 0 15 23 18 133 2 127 2 132 -18
132 -20 0 -20 -5 -18 -132z"/>
<path d="M3172 628 c5 -34 38 -37 38 -4 0 20 -5 26 -21 26 -15 0 -20 -5 -17
-22z"/>
</g>
</svg>
